<mxfile host="app.diagrams.net" agent="Mozilla/5.0 (Windows NT 10.0; Win64; x64) AppleWebKit/537.36 (KHTML, like Gecko) Chrome/128.0.0.0 Safari/537.36" version="24.7.10">
  <diagram name="페이지-1" id="biYIrB3BLiXk-p1VE7MJ">
    <mxGraphModel dx="3191" dy="1103" grid="0" gridSize="10" guides="1" tooltips="1" connect="1" arrows="1" fold="1" page="0" pageScale="1" pageWidth="827" pageHeight="1169" math="0" shadow="0">
      <root>
        <mxCell id="0" />
        <mxCell id="1" parent="0" />
        <mxCell id="5wz9At161UyTVLxkruaE-3" value="ap-norhteast-2" style="sketch=0;outlineConnect=0;gradientColor=none;html=1;whiteSpace=wrap;fontSize=12;fontStyle=0;shape=mxgraph.aws4.group;grIcon=mxgraph.aws4.group_region;strokeColor=#879196;fillColor=none;verticalAlign=top;align=left;spacingLeft=30;fontColor=#879196;dashed=1;" vertex="1" parent="1">
          <mxGeometry x="-310" y="70" width="1168" height="939" as="geometry" />
        </mxCell>
        <mxCell id="5wz9At161UyTVLxkruaE-5" value="VPC (100.0.0.0/16, 168.0.0.0/16)" style="points=[[0,0],[0.25,0],[0.5,0],[0.75,0],[1,0],[1,0.25],[1,0.5],[1,0.75],[1,1],[0.75,1],[0.5,1],[0.25,1],[0,1],[0,0.75],[0,0.5],[0,0.25]];outlineConnect=0;gradientColor=none;html=1;whiteSpace=wrap;fontSize=12;fontStyle=0;container=1;pointerEvents=0;collapsible=0;recursiveResize=0;shape=mxgraph.aws4.group;grIcon=mxgraph.aws4.group_vpc2;strokeColor=#8C4FFF;fillColor=none;verticalAlign=top;align=left;spacingLeft=30;fontColor=#AAB7B8;dashed=0;" vertex="1" parent="1">
          <mxGeometry x="-293" y="108" width="1116" height="865" as="geometry" />
        </mxCell>
        <mxCell id="5wz9At161UyTVLxkruaE-57" value="" style="sketch=0;points=[[0,0,0],[0.25,0,0],[0.5,0,0],[0.75,0,0],[1,0,0],[0,1,0],[0.25,1,0],[0.5,1,0],[0.75,1,0],[1,1,0],[0,0.25,0],[0,0.5,0],[0,0.75,0],[1,0.25,0],[1,0.5,0],[1,0.75,0]];outlineConnect=0;fontColor=#232F3E;fillColor=#8C4FFF;strokeColor=#ffffff;dashed=0;verticalLabelPosition=bottom;verticalAlign=top;align=center;html=1;fontSize=12;fontStyle=0;aspect=fixed;shape=mxgraph.aws4.resourceIcon;resIcon=mxgraph.aws4.transit_gateway;" vertex="1" parent="5wz9At161UyTVLxkruaE-5">
          <mxGeometry x="220" y="381" width="103" height="103" as="geometry" />
        </mxCell>
        <mxCell id="5wz9At161UyTVLxkruaE-12" value="ap-northeast-2a" style="sketch=0;outlineConnect=0;gradientColor=none;html=1;whiteSpace=wrap;fontSize=12;fontStyle=0;shape=mxgraph.aws4.group;grIcon=mxgraph.aws4.group_availability_zone;strokeColor=#545B64;fillColor=none;verticalAlign=top;align=left;spacingLeft=30;fontColor=#545B64;dashed=1;" vertex="1" parent="1">
          <mxGeometry x="-279" y="151" width="1030" height="374" as="geometry" />
        </mxCell>
        <mxCell id="5wz9At161UyTVLxkruaE-25" value="ap-northeast-2b" style="sketch=0;outlineConnect=0;gradientColor=none;html=1;whiteSpace=wrap;fontSize=12;fontStyle=0;shape=mxgraph.aws4.group;grIcon=mxgraph.aws4.group_availability_zone;strokeColor=#545B64;fillColor=none;verticalAlign=top;align=left;spacingLeft=30;fontColor=#545B64;dashed=1;" vertex="1" parent="1">
          <mxGeometry x="-278" y="540" width="1030" height="374" as="geometry" />
        </mxCell>
        <mxCell id="5wz9At161UyTVLxkruaE-28" value="public-subnet(168.0.0.0/24)" style="sketch=0;outlineConnect=0;gradientColor=none;html=1;whiteSpace=wrap;fontSize=12;fontStyle=0;shape=mxgraph.aws4.group;grIcon=mxgraph.aws4.group_subnet;strokeColor=#879196;fillColor=none;verticalAlign=top;align=left;spacingLeft=30;fontColor=#879196;dashed=0;" vertex="1" parent="1">
          <mxGeometry x="254" y="188" width="485" height="327" as="geometry" />
        </mxCell>
        <mxCell id="5wz9At161UyTVLxkruaE-31" value="public-subnet(168.0.10.0/24)" style="sketch=0;outlineConnect=0;gradientColor=none;html=1;whiteSpace=wrap;fontSize=12;fontStyle=0;shape=mxgraph.aws4.group;grIcon=mxgraph.aws4.group_subnet;strokeColor=#879196;fillColor=none;verticalAlign=top;align=left;spacingLeft=30;fontColor=#879196;dashed=0;" vertex="1" parent="1">
          <mxGeometry x="255" y="566" width="484" height="337" as="geometry" />
        </mxCell>
        <mxCell id="5wz9At161UyTVLxkruaE-35" value="us-east-1" style="sketch=0;outlineConnect=0;gradientColor=none;html=1;whiteSpace=wrap;fontSize=12;fontStyle=0;shape=mxgraph.aws4.group;grIcon=mxgraph.aws4.group_region;strokeColor=#879196;fillColor=none;verticalAlign=top;align=left;spacingLeft=30;fontColor=#879196;dashed=1;" vertex="1" parent="1">
          <mxGeometry x="1047" y="70" width="1168" height="939" as="geometry" />
        </mxCell>
        <mxCell id="5wz9At161UyTVLxkruaE-36" value="VPC (10.0.0.0/16, 172.16.0.0/16, 192.168.0.0/16)" style="points=[[0,0],[0.25,0],[0.5,0],[0.75,0],[1,0],[1,0.25],[1,0.5],[1,0.75],[1,1],[0.75,1],[0.5,1],[0.25,1],[0,1],[0,0.75],[0,0.5],[0,0.25]];outlineConnect=0;gradientColor=none;html=1;whiteSpace=wrap;fontSize=12;fontStyle=0;container=1;pointerEvents=0;collapsible=0;recursiveResize=0;shape=mxgraph.aws4.group;grIcon=mxgraph.aws4.group_vpc2;strokeColor=#8C4FFF;fillColor=none;verticalAlign=top;align=left;spacingLeft=30;fontColor=#AAB7B8;dashed=0;" vertex="1" parent="1">
          <mxGeometry x="1064" y="108" width="1116" height="865" as="geometry" />
        </mxCell>
        <mxCell id="5wz9At161UyTVLxkruaE-37" value="us-east-1" style="sketch=0;outlineConnect=0;gradientColor=none;html=1;whiteSpace=wrap;fontSize=12;fontStyle=0;shape=mxgraph.aws4.group;grIcon=mxgraph.aws4.group_availability_zone;strokeColor=#545B64;fillColor=none;verticalAlign=top;align=left;spacingLeft=30;fontColor=#545B64;dashed=1;" vertex="1" parent="1">
          <mxGeometry x="1078" y="151" width="1030" height="374" as="geometry" />
        </mxCell>
        <mxCell id="5wz9At161UyTVLxkruaE-38" value="ap-northeast-2b" style="sketch=0;outlineConnect=0;gradientColor=none;html=1;whiteSpace=wrap;fontSize=12;fontStyle=0;shape=mxgraph.aws4.group;grIcon=mxgraph.aws4.group_availability_zone;strokeColor=#545B64;fillColor=none;verticalAlign=top;align=left;spacingLeft=30;fontColor=#545B64;dashed=1;" vertex="1" parent="1">
          <mxGeometry x="1079" y="540" width="1030" height="374" as="geometry" />
        </mxCell>
        <mxCell id="5wz9At161UyTVLxkruaE-40" value="app-subnet(172.16.0.0/24)" style="sketch=0;outlineConnect=0;gradientColor=none;html=1;whiteSpace=wrap;fontSize=12;fontStyle=0;shape=mxgraph.aws4.group;grIcon=mxgraph.aws4.group_subnet;strokeColor=#879196;fillColor=none;verticalAlign=top;align=left;spacingLeft=30;fontColor=#879196;dashed=0;" vertex="1" parent="1">
          <mxGeometry x="1436" y="188" width="306" height="320" as="geometry" />
        </mxCell>
        <mxCell id="5wz9At161UyTVLxkruaE-41" value="db-subnet(192.168.0.0/24)" style="sketch=0;outlineConnect=0;gradientColor=none;html=1;whiteSpace=wrap;fontSize=12;fontStyle=0;shape=mxgraph.aws4.group;grIcon=mxgraph.aws4.group_subnet;strokeColor=#879196;fillColor=none;verticalAlign=top;align=left;spacingLeft=30;fontColor=#879196;dashed=0;" vertex="1" parent="1">
          <mxGeometry x="1776" y="188" width="306" height="320" as="geometry" />
        </mxCell>
        <mxCell id="5wz9At161UyTVLxkruaE-43" value="app-subnet(172.16.10.0/24)" style="sketch=0;outlineConnect=0;gradientColor=none;html=1;whiteSpace=wrap;fontSize=12;fontStyle=0;shape=mxgraph.aws4.group;grIcon=mxgraph.aws4.group_subnet;strokeColor=#879196;fillColor=none;verticalAlign=top;align=left;spacingLeft=30;fontColor=#879196;dashed=0;" vertex="1" parent="1">
          <mxGeometry x="1436" y="576" width="306" height="320" as="geometry" />
        </mxCell>
        <mxCell id="5wz9At161UyTVLxkruaE-44" value="db-subnet(192.168.10.0/24)" style="sketch=0;outlineConnect=0;gradientColor=none;html=1;whiteSpace=wrap;fontSize=12;fontStyle=0;shape=mxgraph.aws4.group;grIcon=mxgraph.aws4.group_subnet;strokeColor=#879196;fillColor=none;verticalAlign=top;align=left;spacingLeft=30;fontColor=#879196;dashed=0;" vertex="1" parent="1">
          <mxGeometry x="1776" y="576" width="306" height="320" as="geometry" />
        </mxCell>
        <mxCell id="5wz9At161UyTVLxkruaE-46" value="" style="sketch=0;points=[[0,0,0],[0.25,0,0],[0.5,0,0],[0.75,0,0],[1,0,0],[0,1,0],[0.25,1,0],[0.5,1,0],[0.75,1,0],[1,1,0],[0,0.25,0],[0,0.5,0],[0,0.75,0],[1,0.25,0],[1,0.5,0],[1,0.75,0]];outlineConnect=0;fontColor=#232F3E;fillColor=#8C4FFF;strokeColor=#ffffff;dashed=0;verticalLabelPosition=bottom;verticalAlign=top;align=center;html=1;fontSize=12;fontStyle=0;aspect=fixed;shape=mxgraph.aws4.resourceIcon;resIcon=mxgraph.aws4.transit_gateway;" vertex="1" parent="1">
          <mxGeometry x="898" y="496" width="101" height="101" as="geometry" />
        </mxCell>
        <mxCell id="5wz9At161UyTVLxkruaE-47" value="egress-subnet(10.0.0.0/24)" style="sketch=0;outlineConnect=0;gradientColor=none;html=1;whiteSpace=wrap;fontSize=12;fontStyle=0;shape=mxgraph.aws4.group;grIcon=mxgraph.aws4.group_subnet;strokeColor=#879196;fillColor=none;verticalAlign=top;align=left;spacingLeft=30;fontColor=#879196;dashed=0;" vertex="1" parent="1">
          <mxGeometry x="1102" y="188" width="306" height="320" as="geometry" />
        </mxCell>
        <mxCell id="5wz9At161UyTVLxkruaE-48" value="egress-subnet(10.0.10.0/24)" style="sketch=0;outlineConnect=0;gradientColor=none;html=1;whiteSpace=wrap;fontSize=12;fontStyle=0;shape=mxgraph.aws4.group;grIcon=mxgraph.aws4.group_subnet;strokeColor=#879196;fillColor=none;verticalAlign=top;align=left;spacingLeft=30;fontColor=#879196;dashed=0;" vertex="1" parent="1">
          <mxGeometry x="1102" y="576" width="306" height="320" as="geometry" />
        </mxCell>
        <mxCell id="5wz9At161UyTVLxkruaE-49" value="ingress-subnet(100.0.0.0/24)" style="sketch=0;outlineConnect=0;gradientColor=none;html=1;whiteSpace=wrap;fontSize=12;fontStyle=0;shape=mxgraph.aws4.group;grIcon=mxgraph.aws4.group_subnet;strokeColor=#879196;fillColor=none;verticalAlign=top;align=left;spacingLeft=30;fontColor=#879196;dashed=0;" vertex="1" parent="1">
          <mxGeometry x="-254" y="188" width="490" height="326" as="geometry" />
        </mxCell>
        <mxCell id="5wz9At161UyTVLxkruaE-50" value="ingress-subnet(100.0.10.0/24)" style="sketch=0;outlineConnect=0;gradientColor=none;html=1;whiteSpace=wrap;fontSize=12;fontStyle=0;shape=mxgraph.aws4.group;grIcon=mxgraph.aws4.group_subnet;strokeColor=#879196;fillColor=none;verticalAlign=top;align=left;spacingLeft=30;fontColor=#879196;dashed=0;" vertex="1" parent="1">
          <mxGeometry x="-254" y="565" width="489" height="339" as="geometry" />
        </mxCell>
        <mxCell id="5wz9At161UyTVLxkruaE-54" value="" style="sketch=0;points=[[0,0,0],[0.25,0,0],[0.5,0,0],[0.75,0,0],[1,0,0],[0,1,0],[0.25,1,0],[0.5,1,0],[0.75,1,0],[1,1,0],[0,0.25,0],[0,0.5,0],[0,0.75,0],[1,0.25,0],[1,0.5,0],[1,0.75,0]];outlineConnect=0;fontColor=#232F3E;fillColor=#8C4FFF;strokeColor=#ffffff;dashed=0;verticalLabelPosition=bottom;verticalAlign=top;align=center;html=1;fontSize=12;fontStyle=0;aspect=fixed;shape=mxgraph.aws4.resourceIcon;resIcon=mxgraph.aws4.transit_gateway;" vertex="1" parent="1">
          <mxGeometry x="501" y="488" width="103" height="103" as="geometry" />
        </mxCell>
        <mxCell id="5wz9At161UyTVLxkruaE-58" value="Actor" style="shape=umlActor;verticalLabelPosition=bottom;verticalAlign=top;html=1;outlineConnect=0;" vertex="1" parent="1">
          <mxGeometry x="-654" y="485.5" width="88" height="110" as="geometry" />
        </mxCell>
        <mxCell id="5wz9At161UyTVLxkruaE-59" style="edgeStyle=orthogonalEdgeStyle;rounded=0;orthogonalLoop=1;jettySize=auto;html=1;entryX=0;entryY=0.5;entryDx=0;entryDy=0;entryPerimeter=0;" edge="1" parent="1" source="5wz9At161UyTVLxkruaE-58" target="5wz9At161UyTVLxkruaE-57">
          <mxGeometry relative="1" as="geometry" />
        </mxCell>
        <mxCell id="5wz9At161UyTVLxkruaE-60" style="edgeStyle=orthogonalEdgeStyle;rounded=0;orthogonalLoop=1;jettySize=auto;html=1;entryX=0;entryY=0.5;entryDx=0;entryDy=0;entryPerimeter=0;" edge="1" parent="1" source="5wz9At161UyTVLxkruaE-57" target="5wz9At161UyTVLxkruaE-46">
          <mxGeometry relative="1" as="geometry">
            <Array as="points">
              <mxPoint x="-22" y="763" />
              <mxPoint x="782" y="763" />
              <mxPoint x="782" y="540" />
            </Array>
          </mxGeometry>
        </mxCell>
        <mxCell id="5wz9At161UyTVLxkruaE-61" value="" style="sketch=0;points=[[0,0,0],[0.25,0,0],[0.5,0,0],[0.75,0,0],[1,0,0],[0,1,0],[0.25,1,0],[0.5,1,0],[0.75,1,0],[1,1,0],[0,0.25,0],[0,0.5,0],[0,0.75,0],[1,0.25,0],[1,0.5,0],[1,0.75,0]];outlineConnect=0;fontColor=#232F3E;fillColor=#8C4FFF;strokeColor=#ffffff;dashed=0;verticalLabelPosition=bottom;verticalAlign=top;align=center;html=1;fontSize=12;fontStyle=0;aspect=fixed;shape=mxgraph.aws4.resourceIcon;resIcon=mxgraph.aws4.transit_gateway;" vertex="1" parent="1">
          <mxGeometry x="1288" y="496" width="103" height="103" as="geometry" />
        </mxCell>
        <mxCell id="5wz9At161UyTVLxkruaE-62" value="" style="sketch=0;points=[[0,0,0],[0.25,0,0],[0.5,0,0],[0.75,0,0],[1,0,0],[0,1,0],[0.25,1,0],[0.5,1,0],[0.75,1,0],[1,1,0],[0,0.25,0],[0,0.5,0],[0,0.75,0],[1,0.25,0],[1,0.5,0],[1,0.75,0]];outlineConnect=0;fontColor=#232F3E;fillColor=#8C4FFF;strokeColor=#ffffff;dashed=0;verticalLabelPosition=bottom;verticalAlign=top;align=center;html=1;fontSize=12;fontStyle=0;aspect=fixed;shape=mxgraph.aws4.resourceIcon;resIcon=mxgraph.aws4.transit_gateway;" vertex="1" parent="1">
          <mxGeometry x="1627" y="499" width="103" height="103" as="geometry" />
        </mxCell>
        <mxCell id="5wz9At161UyTVLxkruaE-63" value="" style="sketch=0;points=[[0,0,0],[0.25,0,0],[0.5,0,0],[0.75,0,0],[1,0,0],[0,1,0],[0.25,1,0],[0.5,1,0],[0.75,1,0],[1,1,0],[0,0.25,0],[0,0.5,0],[0,0.75,0],[1,0.25,0],[1,0.5,0],[1,0.75,0]];outlineConnect=0;fontColor=#232F3E;fillColor=#8C4FFF;strokeColor=#ffffff;dashed=0;verticalLabelPosition=bottom;verticalAlign=top;align=center;html=1;fontSize=12;fontStyle=0;aspect=fixed;shape=mxgraph.aws4.resourceIcon;resIcon=mxgraph.aws4.transit_gateway;" vertex="1" parent="1">
          <mxGeometry x="1971" y="499" width="103" height="103" as="geometry" />
        </mxCell>
        <mxCell id="5wz9At161UyTVLxkruaE-64" style="edgeStyle=orthogonalEdgeStyle;rounded=0;orthogonalLoop=1;jettySize=auto;html=1;entryX=0;entryY=0.5;entryDx=0;entryDy=0;entryPerimeter=0;" edge="1" parent="1" source="5wz9At161UyTVLxkruaE-46" target="5wz9At161UyTVLxkruaE-62">
          <mxGeometry relative="1" as="geometry">
            <Array as="points">
              <mxPoint x="948" y="756" />
              <mxPoint x="1627" y="756" />
            </Array>
          </mxGeometry>
        </mxCell>
      </root>
    </mxGraphModel>
  </diagram>
</mxfile>
